ISO-10303-21;
HEADER;

/* File generated by HOOPS Exchange Version 24.2.0 */

FILE_DESCRIPTION(('HOOPS Exchange Step'),'2;1');

FILE_NAME('/Users/zoesu_takanori/Desktop/Corcell-case/switch-cover.stp',
'2026-06-29T23:07:53+09:00',
('zoesu_takanori'),
('Unknown organisation'),
'HOOPS Exchange 2024.2',
'HOOPS Exchange',
'Unknown authorisation');

FILE_SCHEMA( ('AP203_CONFIGURATION_CONTROLLED_3D_DESIGN_OF_MECHANICAL_PARTS_AND_ASSEMBLIES_MIM_LF') );

ENDSEC;

DATA;
#3=(NAMED_UNIT(*)PLANE_ANGLE_UNIT()SI_UNIT($,.RADIAN.));
#4=PLANE_ANGLE_MEASURE_WITH_UNIT(PLANE_ANGLE_MEASURE(0.0174532925),#3);
#5=(CONVERSION_BASED_UNIT('DEGREE',#4)NAMED_UNIT(#6)PLANE_ANGLE_UNIT());
#6=DIMENSIONAL_EXPONENTS(0.,0.,0.,0.,0.,0.,0.);
#7=(NAMED_UNIT(*)SI_UNIT($,.STERADIAN.)SOLID_ANGLE_UNIT());
#8=(LENGTH_UNIT()NAMED_UNIT(*)SI_UNIT(.MILLI.,.METRE.));
#9=UNCERTAINTY_MEASURE_WITH_UNIT(LENGTH_MEASURE(1.000000E-05),#8,'DISTANCE_ACCURACY_VALUE','Maximum Tolerance applied to model');
#10=(GEOMETRIC_REPRESENTATION_CONTEXT(3)GLOBAL_UNCERTAINTY_ASSIGNED_CONTEXT((#9))GLOBAL_UNIT_ASSIGNED_CONTEXT((#8,#5,#7))REPRESENTATION_CONTEXT('','root'));
#12=CARTESIAN_POINT('',(0.,0.,0.));
#13=DIRECTION('',(0.,0.,1.));
#14=DIRECTION('',(1.,0.,0.));
#15=AXIS2_PLACEMENT_3D('',#12,#13,#14);
#27=CARTESIAN_POINT('',(-38.35,12.424232189,0.400000048));
#28=DIRECTION('',(0.,0.,-1.));
#29=DIRECTION('',(-1.,0.,0.));
#30=AXIS2_PLACEMENT_3D('',#27,#28,#29);
#31=PLANE('',#30);
#32=CARTESIAN_POINT('',(-49.4,0.9,0.400000048));
#33=VERTEX_POINT('',#32);
#34=CARTESIAN_POINT('',(-26.3,0.9,0.400000048));
#35=VERTEX_POINT('',#34);
#36=CARTESIAN_POINT('',(-49.4,0.9,0.400000048));
#37=DIRECTION('',(1.,0.,-0.));
#38=VECTOR('',#37,23.1);
#39=LINE('',#36,#38);
#40=EDGE_CURVE('',#33,#35,#39,.T.);
#41=ORIENTED_EDGE('',*,*,#40,.F.);
#42=CARTESIAN_POINT('',(-51.4,2.9,0.400000048));
#43=VERTEX_POINT('',#42);
#44=CARTESIAN_POINT('',(-49.4,2.9,0.400000048));
#45=DIRECTION('',(0.,0.,-1.));
#46=DIRECTION('',(-1.,0.,0.));
#47=AXIS2_PLACEMENT_3D('',#44,#45,#46);
#48=CIRCLE('',#47,2.);
#49=EDGE_CURVE('',#33,#43,#48,.T.);
#50=ORIENTED_EDGE('',*,*,#49,.T.);
#51=CARTESIAN_POINT('',(-51.4,21.448464379,0.400000048));
#52=VERTEX_POINT('',#51);
#53=CARTESIAN_POINT('',(-51.4,21.448464379,0.400000048));
#54=DIRECTION('',(0.,-1.,0.));
#55=VECTOR('',#54,18.548464379);
#56=LINE('',#53,#55);
#57=EDGE_CURVE('',#52,#43,#56,.T.);
#58=ORIENTED_EDGE('',*,*,#57,.F.);
#59=CARTESIAN_POINT('',(-49.4,23.448464379,0.400000048));
#60=VERTEX_POINT('',#59);
#61=CARTESIAN_POINT('',(-49.4,21.448464379,0.400000048));
#62=DIRECTION('',(0.,0.,-1.));
#63=DIRECTION('',(-1.,0.,0.));
#64=AXIS2_PLACEMENT_3D('',#61,#62,#63);
#65=CIRCLE('',#64,2.);
#66=EDGE_CURVE('',#52,#60,#65,.T.);
#67=ORIENTED_EDGE('',*,*,#66,.T.);
#68=CARTESIAN_POINT('',(-26.3,23.448464379,0.400000048));
#69=VERTEX_POINT('',#68);
#70=CARTESIAN_POINT('',(-26.3,23.448464379,0.400000048));
#71=DIRECTION('',(-1.,0.,0.));
#72=VECTOR('',#71,23.1);
#73=LINE('',#70,#72);
#74=EDGE_CURVE('',#69,#60,#73,.T.);
#75=ORIENTED_EDGE('',*,*,#74,.F.);
#76=CARTESIAN_POINT('',(-24.3,21.448464379,0.400000048));
#77=VERTEX_POINT('',#76);
#78=CARTESIAN_POINT('',(-26.3,21.448464379,0.400000048));
#79=DIRECTION('',(0.,0.,-1.));
#80=DIRECTION('',(-1.,0.,0.));
#81=AXIS2_PLACEMENT_3D('',#78,#79,#80);
#82=CIRCLE('',#81,2.);
#83=EDGE_CURVE('',#69,#77,#82,.T.);
#84=ORIENTED_EDGE('',*,*,#83,.T.);
#85=CARTESIAN_POINT('',(-24.3,2.9,0.400000048));
#86=VERTEX_POINT('',#85);
#87=CARTESIAN_POINT('',(-24.3,2.9,0.400000048));
#88=DIRECTION('',(0.,1.,0.));
#89=VECTOR('',#88,18.548464379);
#90=LINE('',#87,#89);
#91=EDGE_CURVE('',#86,#77,#90,.T.);
#92=ORIENTED_EDGE('',*,*,#91,.F.);
#93=CARTESIAN_POINT('',(-26.3,2.9,0.400000048));
#94=DIRECTION('',(0.,0.,-1.));
#95=DIRECTION('',(-1.,0.,0.));
#96=AXIS2_PLACEMENT_3D('',#93,#94,#95);
#97=CIRCLE('',#96,2.);
#98=EDGE_CURVE('',#86,#35,#97,.T.);
#99=ORIENTED_EDGE('',*,*,#98,.T.);
#100=EDGE_LOOP('',(#41,#50,#58,#67,#75,#84,#92,#99));
#101=FACE_BOUND('',#100,.T.);
#102=CARTESIAN_POINT('',(-48.177492559,4.103752881,0.400000048));
#103=VERTEX_POINT('',#102);
#104=CARTESIAN_POINT('',(-29.143871282,4.103752881,0.400000048));
#105=VERTEX_POINT('',#104);
#106=CARTESIAN_POINT('',(-48.177492559,4.103752881,0.400000048));
#107=DIRECTION('',(1.,0.,-0.));
#108=VECTOR('',#107,19.033621277);
#109=LINE('',#106,#108);
#110=EDGE_CURVE('',#103,#105,#109,.T.);
#111=ORIENTED_EDGE('',*,*,#110,.T.);
#112=CARTESIAN_POINT('',(-27.143871282,6.103752881,0.400000048));
#113=VERTEX_POINT('',#112);
#114=CARTESIAN_POINT('',(-29.143871282,6.103752881,0.400000048));
#115=DIRECTION('',(-0.,-0.,1.));
#116=DIRECTION('',(-1.,0.,0.));
#117=AXIS2_PLACEMENT_3D('',#114,#115,#116);
#118=CIRCLE('',#117,2.);
#119=EDGE_CURVE('',#105,#113,#118,.T.);
#120=ORIENTED_EDGE('',*,*,#119,.T.);
#121=CARTESIAN_POINT('',(-27.143871282,20.156782996,0.400000048));
#122=VERTEX_POINT('',#121);
#123=CARTESIAN_POINT('',(-27.143871282,6.103752881,0.400000048));
#124=DIRECTION('',(0.,1.,0.));
#125=VECTOR('',#124,14.053030116);
#126=LINE('',#123,#125);
#127=EDGE_CURVE('',#113,#122,#126,.T.);
#128=ORIENTED_EDGE('',*,*,#127,.T.);
#129=CARTESIAN_POINT('',(-29.143871282,22.156782996,0.400000048));
#130=VERTEX_POINT('',#129);
#131=CARTESIAN_POINT('',(-29.143871282,20.156782996,0.400000048));
#132=DIRECTION('',(-0.,-0.,1.));
#133=DIRECTION('',(-1.,0.,0.));
#134=AXIS2_PLACEMENT_3D('',#131,#132,#133);
#135=CIRCLE('',#134,2.);
#136=EDGE_CURVE('',#122,#130,#135,.T.);
#137=ORIENTED_EDGE('',*,*,#136,.T.);
#138=CARTESIAN_POINT('',(-48.177492559,22.156782996,0.400000048));
#139=VERTEX_POINT('',#138);
#140=CARTESIAN_POINT('',(-29.143871282,22.156782996,0.400000048));
#141=DIRECTION('',(-1.,0.,0.));
#142=VECTOR('',#141,19.033621277);
#143=LINE('',#140,#142);
#144=EDGE_CURVE('',#130,#139,#143,.T.);
#145=ORIENTED_EDGE('',*,*,#144,.T.);
#146=CARTESIAN_POINT('',(-50.177492559,20.156782996,0.400000048));
#147=VERTEX_POINT('',#146);
#148=CARTESIAN_POINT('',(-48.177492559,20.156782996,0.400000048));
#149=DIRECTION('',(-0.,-0.,1.));
#150=DIRECTION('',(-1.,0.,0.));
#151=AXIS2_PLACEMENT_3D('',#148,#149,#150);
#152=CIRCLE('',#151,2.);
#153=EDGE_CURVE('',#139,#147,#152,.T.);
#154=ORIENTED_EDGE('',*,*,#153,.T.);
#155=CARTESIAN_POINT('',(-50.177492559,6.103752881,0.400000048));
#156=VERTEX_POINT('',#155);
#157=CARTESIAN_POINT('',(-50.177492559,20.156782996,0.400000048));
#158=DIRECTION('',(0.,-1.,0.));
#159=VECTOR('',#158,14.053030116);
#160=LINE('',#157,#159);
#161=EDGE_CURVE('',#147,#156,#160,.T.);
#162=ORIENTED_EDGE('',*,*,#161,.T.);
#163=CARTESIAN_POINT('',(-48.177492559,6.103752881,0.400000048));
#164=DIRECTION('',(-0.,-0.,1.));
#165=DIRECTION('',(-1.,0.,0.));
#166=AXIS2_PLACEMENT_3D('',#163,#164,#165);
#167=CIRCLE('',#166,2.);
#168=EDGE_CURVE('',#156,#103,#167,.T.);
#169=ORIENTED_EDGE('',*,*,#168,.T.);
#170=EDGE_LOOP('',(#111,#120,#128,#137,#145,#154,#162,#169));
#171=FACE_BOUND('',#170,.T.);
#172=ADVANCED_FACE('',(#101,#171),#31,.T.);
#173=CARTESIAN_POINT('',(-34.35,18.,0.400000048));
#174=DIRECTION('',(0.,1.,0.));
#175=DIRECTION('',(0.,0.,1.));
#176=AXIS2_PLACEMENT_3D('',#173,#174,#175);
#177=PLANE('',#176);
#178=CARTESIAN_POINT('',(-32.8,18.,-0.599999952));
#179=VERTEX_POINT('',#178);
#180=CARTESIAN_POINT('',(-41.1,18.,-0.599999952));
#181=VERTEX_POINT('',#180);
#182=CARTESIAN_POINT('',(-32.8,18.,-0.599999952));
#183=DIRECTION('',(-1.,0.,0.));
#184=VECTOR('',#183,8.3);
#185=LINE('',#182,#184);
#186=EDGE_CURVE('',#179,#181,#185,.T.);
#187=ORIENTED_EDGE('',*,*,#186,.F.);
#188=CARTESIAN_POINT('',(-32.8,18.,1.400000048));
#189=VERTEX_POINT('',#188);
#190=CARTESIAN_POINT('',(-32.8,18.,-0.599999952));
#191=DIRECTION('',(0.,0.,1.));
#192=VECTOR('',#191,2.);
#193=LINE('',#190,#192);
#194=EDGE_CURVE('',#179,#189,#193,.T.);
#195=ORIENTED_EDGE('',*,*,#194,.T.);
#196=CARTESIAN_POINT('',(-41.1,18.,1.400000048));
#197=VERTEX_POINT('',#196);
#198=CARTESIAN_POINT('',(-32.8,18.,1.400000048));
#199=DIRECTION('',(-1.,0.,0.));
#200=VECTOR('',#199,8.3);
#201=LINE('',#198,#200);
#202=EDGE_CURVE('',#189,#197,#201,.T.);
#203=ORIENTED_EDGE('',*,*,#202,.T.);
#204=CARTESIAN_POINT('',(-41.1,18.,1.400000048));
#205=DIRECTION('',(-0.,-0.,-1.));
#206=VECTOR('',#205,2.);
#207=LINE('',#204,#206);
#208=EDGE_CURVE('',#197,#181,#207,.T.);
#209=ORIENTED_EDGE('',*,*,#208,.T.);
#210=EDGE_LOOP('',(#187,#195,#203,#209));
#211=FACE_BOUND('',#210,.T.);
#212=ADVANCED_FACE('',(#211),#177,.F.);
#213=CARTESIAN_POINT('',(-31.8,14.2,0.400000048));
#214=DIRECTION('',(1.,0.,0.));
#215=DIRECTION('',(0.,0.,-1.));
#216=AXIS2_PLACEMENT_3D('',#213,#214,#215);
#217=PLANE('',#216);
#218=CARTESIAN_POINT('',(-31.8,11.4,1.400000048));
#219=VERTEX_POINT('',#218);
#220=CARTESIAN_POINT('',(-31.8,17.,1.400000048));
#221=VERTEX_POINT('',#220);
#222=CARTESIAN_POINT('',(-31.8,11.4,1.400000048));
#223=DIRECTION('',(0.,1.,0.));
#224=VECTOR('',#223,5.6);
#225=LINE('',#222,#224);
#226=EDGE_CURVE('',#219,#221,#225,.T.);
#227=ORIENTED_EDGE('',*,*,#226,.T.);
#228=CARTESIAN_POINT('',(-31.8,17.,-0.599999952));
#229=VERTEX_POINT('',#228);
#230=CARTESIAN_POINT('',(-31.8,17.,1.400000048));
#231=DIRECTION('',(-0.,-0.,-1.));
#232=VECTOR('',#231,2.);
#233=LINE('',#230,#232);
#234=EDGE_CURVE('',#221,#229,#233,.T.);
#235=ORIENTED_EDGE('',*,*,#234,.T.);
#236=CARTESIAN_POINT('',(-31.8,11.4,-0.599999952));
#237=VERTEX_POINT('',#236);
#238=CARTESIAN_POINT('',(-31.8,11.4,-0.599999952));
#239=DIRECTION('',(0.,1.,0.));
#240=VECTOR('',#239,5.6);
#241=LINE('',#238,#240);
#242=EDGE_CURVE('',#237,#229,#241,.T.);
#243=ORIENTED_EDGE('',*,*,#242,.F.);
#244=CARTESIAN_POINT('',(-31.8,11.4,-0.599999952));
#245=DIRECTION('',(0.,0.,1.));
#246=VECTOR('',#245,2.);
#247=LINE('',#244,#246);
#248=EDGE_CURVE('',#237,#219,#247,.T.);
#249=ORIENTED_EDGE('',*,*,#248,.T.);
#250=EDGE_LOOP('',(#227,#235,#243,#249));
#251=FACE_BOUND('',#250,.T.);
#252=ADVANCED_FACE('',(#251),#217,.F.);
#253=CARTESIAN_POINT('',(-34.35,10.4,0.400000048));
#254=DIRECTION('',(0.,-1.,0.));
#255=DIRECTION('',(0.,0.,-1.));
#256=AXIS2_PLACEMENT_3D('',#253,#254,#255);
#257=PLANE('',#256);
#258=CARTESIAN_POINT('',(-41.1,10.4,-0.599999952));
#259=VERTEX_POINT('',#258);
#260=CARTESIAN_POINT('',(-32.8,10.4,-0.599999952));
#261=VERTEX_POINT('',#260);
#262=CARTESIAN_POINT('',(-41.1,10.4,-0.599999952));
#263=DIRECTION('',(1.,0.,-0.));
#264=VECTOR('',#263,8.3);
#265=LINE('',#262,#264);
#266=EDGE_CURVE('',#259,#261,#265,.T.);
#267=ORIENTED_EDGE('',*,*,#266,.F.);
#268=CARTESIAN_POINT('',(-41.1,10.4,1.400000048));
#269=VERTEX_POINT('',#268);
#270=CARTESIAN_POINT('',(-41.1,10.4,-0.599999952));
#271=DIRECTION('',(0.,0.,1.));
#272=VECTOR('',#271,2.);
#273=LINE('',#270,#272);
#274=EDGE_CURVE('',#259,#269,#273,.T.);
#275=ORIENTED_EDGE('',*,*,#274,.T.);
#276=CARTESIAN_POINT('',(-32.8,10.4,1.400000048));
#277=VERTEX_POINT('',#276);
#278=CARTESIAN_POINT('',(-41.1,10.4,1.400000048));
#279=DIRECTION('',(1.,0.,-0.));
#280=VECTOR('',#279,8.3);
#281=LINE('',#278,#280);
#282=EDGE_CURVE('',#269,#277,#281,.T.);
#283=ORIENTED_EDGE('',*,*,#282,.T.);
#284=CARTESIAN_POINT('',(-32.8,10.4,1.400000048));
#285=DIRECTION('',(-0.,-0.,-1.));
#286=VECTOR('',#285,2.);
#287=LINE('',#284,#286);
#288=EDGE_CURVE('',#277,#261,#287,.T.);
#289=ORIENTED_EDGE('',*,*,#288,.T.);
#290=EDGE_LOOP('',(#267,#275,#283,#289));
#291=FACE_BOUND('',#290,.T.);
#292=ADVANCED_FACE('',(#291),#257,.F.);
#293=CARTESIAN_POINT('',(-42.1,14.2,0.400000048));
#294=DIRECTION('',(-1.,0.,0.));
#295=DIRECTION('',(0.,0.,1.));
#296=AXIS2_PLACEMENT_3D('',#293,#294,#295);
#297=PLANE('',#296);
#298=CARTESIAN_POINT('',(-42.1,17.,1.400000048));
#299=VERTEX_POINT('',#298);
#300=CARTESIAN_POINT('',(-42.1,11.4,1.400000048));
#301=VERTEX_POINT('',#300);
#302=CARTESIAN_POINT('',(-42.1,17.,1.400000048));
#303=DIRECTION('',(0.,-1.,0.));
#304=VECTOR('',#303,5.6);
#305=LINE('',#302,#304);
#306=EDGE_CURVE('',#299,#301,#305,.T.);
#307=ORIENTED_EDGE('',*,*,#306,.T.);
#308=CARTESIAN_POINT('',(-42.1,11.4,-0.599999952));
#309=VERTEX_POINT('',#308);
#310=CARTESIAN_POINT('',(-42.1,11.4,1.400000048));
#311=DIRECTION('',(-0.,-0.,-1.));
#312=VECTOR('',#311,2.);
#313=LINE('',#310,#312);
#314=EDGE_CURVE('',#301,#309,#313,.T.);
#315=ORIENTED_EDGE('',*,*,#314,.T.);
#316=CARTESIAN_POINT('',(-42.1,17.,-0.599999952));
#317=VERTEX_POINT('',#316);
#318=CARTESIAN_POINT('',(-42.1,17.,-0.599999952));
#319=DIRECTION('',(0.,-1.,0.));
#320=VECTOR('',#319,5.6);
#321=LINE('',#318,#320);
#322=EDGE_CURVE('',#317,#309,#321,.T.);
#323=ORIENTED_EDGE('',*,*,#322,.F.);
#324=CARTESIAN_POINT('',(-42.1,17.,-0.599999952));
#325=DIRECTION('',(0.,0.,1.));
#326=VECTOR('',#325,2.);
#327=LINE('',#324,#326);
#328=EDGE_CURVE('',#317,#299,#327,.T.);
#329=ORIENTED_EDGE('',*,*,#328,.T.);
#330=EDGE_LOOP('',(#307,#315,#323,#329));
#331=FACE_BOUND('',#330,.T.);
#332=ADVANCED_FACE('',(#331),#297,.F.);
#333=CARTESIAN_POINT('',(-47.,19.4,0.400000048));
#334=DIRECTION('',(0.,1.,0.));
#335=DIRECTION('',(0.,0.,1.));
#336=AXIS2_PLACEMENT_3D('',#333,#334,#335);
#337=PLANE('',#336);
#338=CARTESIAN_POINT('',(-45.6,19.4,1.400000048));
#339=VERTEX_POINT('',#338);
#340=CARTESIAN_POINT('',(-48.4,19.4,1.400000048));
#341=VERTEX_POINT('',#340);
#342=CARTESIAN_POINT('',(-45.6,19.4,1.400000048));
#343=DIRECTION('',(-1.,0.,0.));
#344=VECTOR('',#343,2.8);
#345=LINE('',#342,#344);
#346=EDGE_CURVE('',#339,#341,#345,.T.);
#347=ORIENTED_EDGE('',*,*,#346,.T.);
#348=CARTESIAN_POINT('',(-48.4,19.4,-0.599999952));
#349=VERTEX_POINT('',#348);
#350=CARTESIAN_POINT('',(-48.4,19.4,1.400000048));
#351=DIRECTION('',(-0.,-0.,-1.));
#352=VECTOR('',#351,2.);
#353=LINE('',#350,#352);
#354=EDGE_CURVE('',#341,#349,#353,.T.);
#355=ORIENTED_EDGE('',*,*,#354,.T.);
#356=CARTESIAN_POINT('',(-45.6,19.4,-0.599999952));
#357=VERTEX_POINT('',#356);
#358=CARTESIAN_POINT('',(-45.6,19.4,-0.599999952));
#359=DIRECTION('',(-1.,0.,0.));
#360=VECTOR('',#359,2.8);
#361=LINE('',#358,#360);
#362=EDGE_CURVE('',#357,#349,#361,.T.);
#363=ORIENTED_EDGE('',*,*,#362,.F.);
#364=CARTESIAN_POINT('',(-45.6,19.4,-0.599999952));
#365=DIRECTION('',(0.,0.,1.));
#366=VECTOR('',#365,2.);
#367=LINE('',#364,#366);
#368=EDGE_CURVE('',#357,#339,#367,.T.);
#369=ORIENTED_EDGE('',*,*,#368,.T.);
#370=EDGE_LOOP('',(#347,#355,#363,#369));
#371=FACE_BOUND('',#370,.T.);
#372=ADVANCED_FACE('',(#371),#337,.F.);
#373=CARTESIAN_POINT('',(-44.6,14.4,0.400000048));
#374=DIRECTION('',(1.,0.,0.));
#375=DIRECTION('',(0.,0.,-1.));
#376=AXIS2_PLACEMENT_3D('',#373,#374,#375);
#377=PLANE('',#376);
#378=CARTESIAN_POINT('',(-44.6,10.4,1.400000048));
#379=VERTEX_POINT('',#378);
#380=CARTESIAN_POINT('',(-44.6,18.4,1.400000048));
#381=VERTEX_POINT('',#380);
#382=CARTESIAN_POINT('',(-44.6,10.4,1.400000048));
#383=DIRECTION('',(0.,1.,0.));
#384=VECTOR('',#383,8.);
#385=LINE('',#382,#384);
#386=EDGE_CURVE('',#379,#381,#385,.T.);
#387=ORIENTED_EDGE('',*,*,#386,.T.);
#388=CARTESIAN_POINT('',(-44.6,18.4,-0.599999952));
#389=VERTEX_POINT('',#388);
#390=CARTESIAN_POINT('',(-44.6,18.4,1.400000048));
#391=DIRECTION('',(-0.,-0.,-1.));
#392=VECTOR('',#391,2.);
#393=LINE('',#390,#392);
#394=EDGE_CURVE('',#381,#389,#393,.T.);
#395=ORIENTED_EDGE('',*,*,#394,.T.);
#396=CARTESIAN_POINT('',(-44.6,10.4,-0.599999952));
#397=VERTEX_POINT('',#396);
#398=CARTESIAN_POINT('',(-44.6,10.4,-0.599999952));
#399=DIRECTION('',(0.,1.,0.));
#400=VECTOR('',#399,8.);
#401=LINE('',#398,#400);
#402=EDGE_CURVE('',#397,#389,#401,.T.);
#403=ORIENTED_EDGE('',*,*,#402,.F.);
#404=CARTESIAN_POINT('',(-44.6,10.4,-0.599999952));
#405=DIRECTION('',(0.,0.,1.));
#406=VECTOR('',#405,2.);
#407=LINE('',#404,#406);
#408=EDGE_CURVE('',#397,#379,#407,.T.);
#409=ORIENTED_EDGE('',*,*,#408,.T.);
#410=EDGE_LOOP('',(#387,#395,#403,#409));
#411=FACE_BOUND('',#410,.T.);
#412=ADVANCED_FACE('',(#411),#377,.F.);
#413=CARTESIAN_POINT('',(-47.,9.4,0.400000048));
#414=DIRECTION('',(0.,-1.,0.));
#415=DIRECTION('',(0.,0.,-1.));
#416=AXIS2_PLACEMENT_3D('',#413,#414,#415);
#417=PLANE('',#416);
#418=CARTESIAN_POINT('',(-48.4,9.4,-0.599999952));
#419=VERTEX_POINT('',#418);
#420=CARTESIAN_POINT('',(-45.6,9.4,-0.599999952));
#421=VERTEX_POINT('',#420);
#422=CARTESIAN_POINT('',(-48.4,9.4,-0.599999952));
#423=DIRECTION('',(1.,0.,-0.));
#424=VECTOR('',#423,2.8);
#425=LINE('',#422,#424);
#426=EDGE_CURVE('',#419,#421,#425,.T.);
#427=ORIENTED_EDGE('',*,*,#426,.F.);
#428=CARTESIAN_POINT('',(-48.4,9.4,1.400000048));
#429=VERTEX_POINT('',#428);
#430=CARTESIAN_POINT('',(-48.4,9.4,-0.599999952));
#431=DIRECTION('',(0.,0.,1.));
#432=VECTOR('',#431,2.);
#433=LINE('',#430,#432);
#434=EDGE_CURVE('',#419,#429,#433,.T.);
#435=ORIENTED_EDGE('',*,*,#434,.T.);
#436=CARTESIAN_POINT('',(-45.6,9.4,1.400000048));
#437=VERTEX_POINT('',#436);
#438=CARTESIAN_POINT('',(-48.4,9.4,1.400000048));
#439=DIRECTION('',(1.,0.,-0.));
#440=VECTOR('',#439,2.8);
#441=LINE('',#438,#440);
#442=EDGE_CURVE('',#429,#437,#441,.T.);
#443=ORIENTED_EDGE('',*,*,#442,.T.);
#444=CARTESIAN_POINT('',(-45.6,9.4,1.400000048));
#445=DIRECTION('',(-0.,-0.,-1.));
#446=VECTOR('',#445,2.);
#447=LINE('',#444,#446);
#448=EDGE_CURVE('',#437,#421,#447,.T.);
#449=ORIENTED_EDGE('',*,*,#448,.T.);
#450=EDGE_LOOP('',(#427,#435,#443,#449));
#451=FACE_BOUND('',#450,.T.);
#452=ADVANCED_FACE('',(#451),#417,.F.);
#453=CARTESIAN_POINT('',(-49.4,14.4,0.400000048));
#454=DIRECTION('',(-1.,0.,0.));
#455=DIRECTION('',(0.,0.,1.));
#456=AXIS2_PLACEMENT_3D('',#453,#454,#455);
#457=PLANE('',#456);
#458=CARTESIAN_POINT('',(-49.4,18.4,-0.599999952));
#459=VERTEX_POINT('',#458);
#460=CARTESIAN_POINT('',(-49.4,10.4,-0.599999952));
#461=VERTEX_POINT('',#460);
#462=CARTESIAN_POINT('',(-49.4,18.4,-0.599999952));
#463=DIRECTION('',(0.,-1.,0.));
#464=VECTOR('',#463,8.);
#465=LINE('',#462,#464);
#466=EDGE_CURVE('',#459,#461,#465,.T.);
#467=ORIENTED_EDGE('',*,*,#466,.F.);
#468=CARTESIAN_POINT('',(-49.4,18.4,1.400000048));
#469=VERTEX_POINT('',#468);
#470=CARTESIAN_POINT('',(-49.4,18.4,-0.599999952));
#471=DIRECTION('',(0.,0.,1.));
#472=VECTOR('',#471,2.);
#473=LINE('',#470,#472);
#474=EDGE_CURVE('',#459,#469,#473,.T.);
#475=ORIENTED_EDGE('',*,*,#474,.T.);
#476=CARTESIAN_POINT('',(-49.4,10.4,1.400000048));
#477=VERTEX_POINT('',#476);
#478=CARTESIAN_POINT('',(-49.4,18.4,1.400000048));
#479=DIRECTION('',(0.,-1.,0.));
#480=VECTOR('',#479,8.);
#481=LINE('',#478,#480);
#482=EDGE_CURVE('',#469,#477,#481,.T.);
#483=ORIENTED_EDGE('',*,*,#482,.T.);
#484=CARTESIAN_POINT('',(-49.4,10.4,1.400000048));
#485=DIRECTION('',(-0.,-0.,-1.));
#486=VECTOR('',#485,2.);
#487=LINE('',#484,#486);
#488=EDGE_CURVE('',#477,#461,#487,.T.);
#489=ORIENTED_EDGE('',*,*,#488,.T.);
#490=EDGE_LOOP('',(#467,#475,#483,#489));
#491=FACE_BOUND('',#490,.T.);
#492=ADVANCED_FACE('',(#491),#457,.F.);
#493=CARTESIAN_POINT('',(-38.35,12.424232189,1.400000048));
#494=DIRECTION('',(0.,0.,1.));
#495=DIRECTION('',(1.,0.,0.));
#496=AXIS2_PLACEMENT_3D('',#493,#494,#495);
#497=PLANE('',#496);
#498=ORIENTED_EDGE('',*,*,#442,.F.);
#499=CARTESIAN_POINT('',(-48.4,10.4,1.400000048));
#500=DIRECTION('',(-0.,-0.,-1.));
#501=DIRECTION('',(1.,0.,-0.));
#502=AXIS2_PLACEMENT_3D('',#499,#500,#501);
#503=CIRCLE('',#502,1.);
#504=EDGE_CURVE('',#429,#477,#503,.T.);
#505=ORIENTED_EDGE('',*,*,#504,.T.);
#506=ORIENTED_EDGE('',*,*,#482,.F.);
#507=CARTESIAN_POINT('',(-48.4,18.4,1.400000048));
#508=DIRECTION('',(-0.,-0.,-1.));
#509=DIRECTION('',(1.,0.,-0.));
#510=AXIS2_PLACEMENT_3D('',#507,#508,#509);
#511=CIRCLE('',#510,1.);
#512=EDGE_CURVE('',#469,#341,#511,.T.);
#513=ORIENTED_EDGE('',*,*,#512,.T.);
#514=ORIENTED_EDGE('',*,*,#346,.F.);
#515=CARTESIAN_POINT('',(-45.6,18.4,1.400000048));
#516=DIRECTION('',(-0.,-0.,-1.));
#517=DIRECTION('',(1.,0.,-0.));
#518=AXIS2_PLACEMENT_3D('',#515,#516,#517);
#519=CIRCLE('',#518,1.);
#520=EDGE_CURVE('',#339,#381,#519,.T.);
#521=ORIENTED_EDGE('',*,*,#520,.T.);
#522=ORIENTED_EDGE('',*,*,#386,.F.);
#523=CARTESIAN_POINT('',(-45.6,10.4,1.400000048));
#524=DIRECTION('',(-0.,-0.,-1.));
#525=DIRECTION('',(1.,0.,-0.));
#526=AXIS2_PLACEMENT_3D('',#523,#524,#525);
#527=CIRCLE('',#526,1.);
#528=EDGE_CURVE('',#379,#437,#527,.T.);
#529=ORIENTED_EDGE('',*,*,#528,.T.);
#530=EDGE_LOOP('',(#498,#505,#506,#513,#514,#521,#522,#529));
#531=FACE_BOUND('',#530,.T.);
#532=ORIENTED_EDGE('',*,*,#282,.F.);
#533=CARTESIAN_POINT('',(-41.1,11.4,1.400000048));
#534=DIRECTION('',(-0.,-0.,-1.));
#535=DIRECTION('',(1.,0.,-0.));
#536=AXIS2_PLACEMENT_3D('',#533,#534,#535);
#537=CIRCLE('',#536,1.);
#538=EDGE_CURVE('',#269,#301,#537,.T.);
#539=ORIENTED_EDGE('',*,*,#538,.T.);
#540=ORIENTED_EDGE('',*,*,#306,.F.);
#541=CARTESIAN_POINT('',(-41.1,17.,1.400000048));
#542=DIRECTION('',(-0.,-0.,-1.));
#543=DIRECTION('',(1.,0.,-0.));
#544=AXIS2_PLACEMENT_3D('',#541,#542,#543);
#545=CIRCLE('',#544,1.);
#546=EDGE_CURVE('',#299,#197,#545,.T.);
#547=ORIENTED_EDGE('',*,*,#546,.T.);
#548=ORIENTED_EDGE('',*,*,#202,.F.);
#549=CARTESIAN_POINT('',(-32.8,17.,1.400000048));
#550=DIRECTION('',(-0.,-0.,-1.));
#551=DIRECTION('',(1.,0.,-0.));
#552=AXIS2_PLACEMENT_3D('',#549,#550,#551);
#553=CIRCLE('',#552,1.);
#554=EDGE_CURVE('',#189,#221,#553,.T.);
#555=ORIENTED_EDGE('',*,*,#554,.T.);
#556=ORIENTED_EDGE('',*,*,#226,.F.);
#557=CARTESIAN_POINT('',(-32.8,11.4,1.400000048));
#558=DIRECTION('',(-0.,-0.,-1.));
#559=DIRECTION('',(1.,0.,-0.));
#560=AXIS2_PLACEMENT_3D('',#557,#558,#559);
#561=CIRCLE('',#560,1.);
#562=EDGE_CURVE('',#219,#277,#561,.T.);
#563=ORIENTED_EDGE('',*,*,#562,.T.);
#564=EDGE_LOOP('',(#532,#539,#540,#547,#548,#555,#556,#563));
#565=FACE_BOUND('',#564,.T.);
#566=CARTESIAN_POINT('',(-51.4,2.9,1.400000048));
#567=VERTEX_POINT('',#566);
#568=CARTESIAN_POINT('',(-51.4,21.448464379,1.400000048));
#569=VERTEX_POINT('',#568);
#570=CARTESIAN_POINT('',(-51.4,2.9,1.400000048));
#571=DIRECTION('',(0.,1.,0.));
#572=VECTOR('',#571,18.548464379);
#573=LINE('',#570,#572);
#574=EDGE_CURVE('',#567,#569,#573,.T.);
#575=ORIENTED_EDGE('',*,*,#574,.F.);
#576=CARTESIAN_POINT('',(-49.4,0.9,1.400000048));
#577=VERTEX_POINT('',#576);
#578=CARTESIAN_POINT('',(-49.4,2.9,1.400000048));
#579=DIRECTION('',(0.,0.,1.));
#580=DIRECTION('',(1.,0.,-0.));
#581=AXIS2_PLACEMENT_3D('',#578,#579,#580);
#582=CIRCLE('',#581,2.);
#583=EDGE_CURVE('',#567,#577,#582,.T.);
#584=ORIENTED_EDGE('',*,*,#583,.T.);
#585=CARTESIAN_POINT('',(-26.3,0.9,1.400000048));
#586=VERTEX_POINT('',#585);
#587=CARTESIAN_POINT('',(-26.3,0.9,1.400000048));
#588=DIRECTION('',(-1.,0.,0.));
#589=VECTOR('',#588,23.1);
#590=LINE('',#587,#589);
#591=EDGE_CURVE('',#586,#577,#590,.T.);
#592=ORIENTED_EDGE('',*,*,#591,.F.);
#593=CARTESIAN_POINT('',(-24.3,2.9,1.400000048));
#594=VERTEX_POINT('',#593);
#595=CARTESIAN_POINT('',(-26.3,2.9,1.400000048));
#596=DIRECTION('',(0.,0.,1.));
#597=DIRECTION('',(1.,0.,-0.));
#598=AXIS2_PLACEMENT_3D('',#595,#596,#597);
#599=CIRCLE('',#598,2.);
#600=EDGE_CURVE('',#586,#594,#599,.T.);
#601=ORIENTED_EDGE('',*,*,#600,.T.);
#602=CARTESIAN_POINT('',(-24.3,21.448464379,1.400000048));
#603=VERTEX_POINT('',#602);
#604=CARTESIAN_POINT('',(-24.3,21.448464379,1.400000048));
#605=DIRECTION('',(0.,-1.,0.));
#606=VECTOR('',#605,18.548464379);
#607=LINE('',#604,#606);
#608=EDGE_CURVE('',#603,#594,#607,.T.);
#609=ORIENTED_EDGE('',*,*,#608,.F.);
#610=CARTESIAN_POINT('',(-26.3,23.448464379,1.400000048));
#611=VERTEX_POINT('',#610);
#612=CARTESIAN_POINT('',(-26.3,21.448464379,1.400000048));
#613=DIRECTION('',(0.,0.,1.));
#614=DIRECTION('',(1.,0.,-0.));
#615=AXIS2_PLACEMENT_3D('',#612,#613,#614);
#616=CIRCLE('',#615,2.);
#617=EDGE_CURVE('',#603,#611,#616,.T.);
#618=ORIENTED_EDGE('',*,*,#617,.T.);
#619=CARTESIAN_POINT('',(-49.4,23.448464379,1.400000048));
#620=VERTEX_POINT('',#619);
#621=CARTESIAN_POINT('',(-49.4,23.448464379,1.400000048));
#622=DIRECTION('',(1.,0.,-0.));
#623=VECTOR('',#622,23.1);
#624=LINE('',#621,#623);
#625=EDGE_CURVE('',#620,#611,#624,.T.);
#626=ORIENTED_EDGE('',*,*,#625,.F.);
#627=CARTESIAN_POINT('',(-49.4,21.448464379,1.400000048));
#628=DIRECTION('',(0.,0.,1.));
#629=DIRECTION('',(1.,0.,-0.));
#630=AXIS2_PLACEMENT_3D('',#627,#628,#629);
#631=CIRCLE('',#630,2.);
#632=EDGE_CURVE('',#620,#569,#631,.T.);
#633=ORIENTED_EDGE('',*,*,#632,.T.);
#634=EDGE_LOOP('',(#575,#584,#592,#601,#609,#618,#626,#633));
#635=FACE_BOUND('',#634,.T.);
#636=ADVANCED_FACE('',(#531,#565,#635),#497,.T.);
#637=CARTESIAN_POINT('',(-24.3,12.424232189,0.400000048));
#638=DIRECTION('',(1.,0.,0.));
#639=DIRECTION('',(0.,0.,-1.));
#640=AXIS2_PLACEMENT_3D('',#637,#638,#639);
#641=PLANE('',#640);
#642=ORIENTED_EDGE('',*,*,#608,.T.);
#643=CARTESIAN_POINT('',(-24.3,2.9,1.400000048));
#644=DIRECTION('',(-0.,-0.,-1.));
#645=VECTOR('',#644,1.);
#646=LINE('',#643,#645);
#647=EDGE_CURVE('',#594,#86,#646,.T.);
#648=ORIENTED_EDGE('',*,*,#647,.T.);
#649=ORIENTED_EDGE('',*,*,#91,.T.);
#650=CARTESIAN_POINT('',(-24.3,21.448464379,0.400000048));
#651=DIRECTION('',(0.,0.,1.));
#652=VECTOR('',#651,1.);
#653=LINE('',#650,#652);
#654=EDGE_CURVE('',#77,#603,#653,.T.);
#655=ORIENTED_EDGE('',*,*,#654,.T.);
#656=EDGE_LOOP('',(#642,#648,#649,#655));
#657=FACE_BOUND('',#656,.T.);
#658=ADVANCED_FACE('',(#657),#641,.T.);
#659=CARTESIAN_POINT('',(-38.35,23.448464379,0.400000048));
#660=DIRECTION('',(0.,1.,0.));
#661=DIRECTION('',(0.,0.,1.));
#662=AXIS2_PLACEMENT_3D('',#659,#660,#661);
#663=PLANE('',#662);
#664=ORIENTED_EDGE('',*,*,#625,.T.);
#665=CARTESIAN_POINT('',(-26.3,23.448464379,1.400000048));
#666=DIRECTION('',(-0.,-0.,-1.));
#667=VECTOR('',#666,1.);
#668=LINE('',#665,#667);
#669=EDGE_CURVE('',#611,#69,#668,.T.);
#670=ORIENTED_EDGE('',*,*,#669,.T.);
#671=ORIENTED_EDGE('',*,*,#74,.T.);
#672=CARTESIAN_POINT('',(-49.4,23.448464379,0.400000048));
#673=DIRECTION('',(0.,0.,1.));
#674=VECTOR('',#673,1.);
#675=LINE('',#672,#674);
#676=EDGE_CURVE('',#60,#620,#675,.T.);
#677=ORIENTED_EDGE('',*,*,#676,.T.);
#678=EDGE_LOOP('',(#664,#670,#671,#677));
#679=FACE_BOUND('',#678,.T.);
#680=ADVANCED_FACE('',(#679),#663,.T.);
#681=CARTESIAN_POINT('',(-38.35,0.9,0.400000048));
#682=DIRECTION('',(0.,-1.,0.));
#683=DIRECTION('',(0.,0.,-1.));
#684=AXIS2_PLACEMENT_3D('',#681,#682,#683);
#685=PLANE('',#684);
#686=ORIENTED_EDGE('',*,*,#591,.T.);
#687=CARTESIAN_POINT('',(-49.4,0.9,1.400000048));
#688=DIRECTION('',(-0.,-0.,-1.));
#689=VECTOR('',#688,1.);
#690=LINE('',#687,#689);
#691=EDGE_CURVE('',#577,#33,#690,.T.);
#692=ORIENTED_EDGE('',*,*,#691,.T.);
#693=ORIENTED_EDGE('',*,*,#40,.T.);
#694=CARTESIAN_POINT('',(-26.3,0.9,0.400000048));
#695=DIRECTION('',(0.,0.,1.));
#696=VECTOR('',#695,1.);
#697=LINE('',#694,#696);
#698=EDGE_CURVE('',#35,#586,#697,.T.);
#699=ORIENTED_EDGE('',*,*,#698,.T.);
#700=EDGE_LOOP('',(#686,#692,#693,#699));
#701=FACE_BOUND('',#700,.T.);
#702=ADVANCED_FACE('',(#701),#685,.T.);
#703=CARTESIAN_POINT('',(-51.4,35.570928991,2.200000048));
#704=DIRECTION('',(1.,0.,0.));
#705=DIRECTION('',(0.,0.,-1.));
#706=AXIS2_PLACEMENT_3D('',#703,#704,#705);
#707=PLANE('',#706);
#708=ORIENTED_EDGE('',*,*,#57,.T.);
#709=CARTESIAN_POINT('',(-51.4,2.9,0.400000048));
#710=DIRECTION('',(0.,0.,1.));
#711=VECTOR('',#710,1.);
#712=LINE('',#709,#711);
#713=EDGE_CURVE('',#43,#567,#712,.T.);
#714=ORIENTED_EDGE('',*,*,#713,.T.);
#715=ORIENTED_EDGE('',*,*,#574,.T.);
#716=CARTESIAN_POINT('',(-51.4,21.448464379,1.400000048));
#717=DIRECTION('',(-0.,-0.,-1.));
#718=VECTOR('',#717,1.);
#719=LINE('',#716,#718);
#720=EDGE_CURVE('',#569,#52,#719,.T.);
#721=ORIENTED_EDGE('',*,*,#720,.T.);
#722=EDGE_LOOP('',(#708,#714,#715,#721));
#723=FACE_BOUND('',#722,.T.);
#724=ADVANCED_FACE('',(#723),#707,.F.);
#725=CARTESIAN_POINT('',(-26.3,2.9,0.400000048));
#726=DIRECTION('',(0.,0.,1.));
#727=DIRECTION('',(1.,0.,-0.));
#728=AXIS2_PLACEMENT_3D('',#725,#726,#727);
#729=CYLINDRICAL_SURFACE('',#728,2.);
#730=ORIENTED_EDGE('',*,*,#98,.F.);
#731=ORIENTED_EDGE('',*,*,#647,.F.);
#732=ORIENTED_EDGE('',*,*,#600,.F.);
#733=ORIENTED_EDGE('',*,*,#698,.F.);
#734=EDGE_LOOP('',(#730,#731,#732,#733));
#735=FACE_BOUND('',#734,.T.);
#736=ADVANCED_FACE('',(#735),#729,.T.);
#737=CARTESIAN_POINT('',(-26.3,21.448464379,0.400000048));
#738=DIRECTION('',(0.,0.,1.));
#739=DIRECTION('',(1.,0.,-0.));
#740=AXIS2_PLACEMENT_3D('',#737,#738,#739);
#741=CYLINDRICAL_SURFACE('',#740,2.);
#742=ORIENTED_EDGE('',*,*,#83,.F.);
#743=ORIENTED_EDGE('',*,*,#669,.F.);
#744=ORIENTED_EDGE('',*,*,#617,.F.);
#745=ORIENTED_EDGE('',*,*,#654,.F.);
#746=EDGE_LOOP('',(#742,#743,#744,#745));
#747=FACE_BOUND('',#746,.T.);
#748=ADVANCED_FACE('',(#747),#741,.T.);
#749=CARTESIAN_POINT('',(-49.4,21.448464379,0.400000048));
#750=DIRECTION('',(0.,0.,-1.));
#751=DIRECTION('',(-1.,0.,0.));
#752=AXIS2_PLACEMENT_3D('',#749,#750,#751);
#753=CYLINDRICAL_SURFACE('',#752,2.);
#754=ORIENTED_EDGE('',*,*,#66,.F.);
#755=ORIENTED_EDGE('',*,*,#720,.F.);
#756=ORIENTED_EDGE('',*,*,#632,.F.);
#757=ORIENTED_EDGE('',*,*,#676,.F.);
#758=EDGE_LOOP('',(#754,#755,#756,#757));
#759=FACE_BOUND('',#758,.T.);
#760=ADVANCED_FACE('',(#759),#753,.T.);
#761=CARTESIAN_POINT('',(-49.4,2.9,2.200000048));
#762=DIRECTION('',(0.,0.,-1.));
#763=DIRECTION('',(-1.,0.,0.));
#764=AXIS2_PLACEMENT_3D('',#761,#762,#763);
#765=CYLINDRICAL_SURFACE('',#764,2.);
#766=ORIENTED_EDGE('',*,*,#49,.F.);
#767=ORIENTED_EDGE('',*,*,#691,.F.);
#768=ORIENTED_EDGE('',*,*,#583,.F.);
#769=ORIENTED_EDGE('',*,*,#713,.F.);
#770=EDGE_LOOP('',(#766,#767,#768,#769));
#771=FACE_BOUND('',#770,.T.);
#772=ADVANCED_FACE('',(#771),#765,.T.);
#773=CARTESIAN_POINT('',(-27.143871282,22.156782996,-0.599999952));
#774=DIRECTION('',(0.,1.,0.));
#775=DIRECTION('',(0.,0.,1.));
#776=AXIS2_PLACEMENT_3D('',#773,#774,#775);
#777=PLANE('',#776);
#778=ORIENTED_EDGE('',*,*,#144,.F.);
#779=CARTESIAN_POINT('',(-29.143871282,22.156782996,-0.599999952));
#780=VERTEX_POINT('',#779);
#781=CARTESIAN_POINT('',(-29.143871282,22.156782996,0.400000048));
#782=DIRECTION('',(-0.,-0.,-1.));
#783=VECTOR('',#782,1.);
#784=LINE('',#781,#783);
#785=EDGE_CURVE('',#130,#780,#784,.T.);
#786=ORIENTED_EDGE('',*,*,#785,.T.);
#787=CARTESIAN_POINT('',(-48.177492559,22.156782996,-0.599999952));
#788=VERTEX_POINT('',#787);
#789=CARTESIAN_POINT('',(-29.143871282,22.156782996,-0.599999952));
#790=DIRECTION('',(-1.,0.,0.));
#791=VECTOR('',#790,19.033621277);
#792=LINE('',#789,#791);
#793=EDGE_CURVE('',#780,#788,#792,.T.);
#794=ORIENTED_EDGE('',*,*,#793,.T.);
#795=CARTESIAN_POINT('',(-48.177492559,22.156782996,-0.599999952));
#796=DIRECTION('',(0.,0.,1.));
#797=VECTOR('',#796,1.);
#798=LINE('',#795,#797);
#799=EDGE_CURVE('',#788,#139,#798,.T.);
#800=ORIENTED_EDGE('',*,*,#799,.T.);
#801=EDGE_LOOP('',(#778,#786,#794,#800));
#802=FACE_BOUND('',#801,.T.);
#803=ADVANCED_FACE('',(#802),#777,.T.);
#804=CARTESIAN_POINT('',(-50.177492559,21.156782996,-0.599999952));
#805=DIRECTION('',(-1.,0.,0.));
#806=DIRECTION('',(0.,0.,1.));
#807=AXIS2_PLACEMENT_3D('',#804,#805,#806);
#808=PLANE('',#807);
#809=ORIENTED_EDGE('',*,*,#161,.F.);
#810=CARTESIAN_POINT('',(-50.177492559,20.156782996,-0.599999952));
#811=VERTEX_POINT('',#810);
#812=CARTESIAN_POINT('',(-50.177492559,20.156782996,0.400000048));
#813=DIRECTION('',(-0.,-0.,-1.));
#814=VECTOR('',#813,1.);
#815=LINE('',#812,#814);
#816=EDGE_CURVE('',#147,#811,#815,.T.);
#817=ORIENTED_EDGE('',*,*,#816,.T.);
#818=CARTESIAN_POINT('',(-50.177492559,6.103752881,-0.599999952));
#819=VERTEX_POINT('',#818);
#820=CARTESIAN_POINT('',(-50.177492559,20.156782996,-0.599999952));
#821=DIRECTION('',(0.,-1.,0.));
#822=VECTOR('',#821,14.053030116);
#823=LINE('',#820,#822);
#824=EDGE_CURVE('',#811,#819,#823,.T.);
#825=ORIENTED_EDGE('',*,*,#824,.T.);
#826=CARTESIAN_POINT('',(-50.177492559,6.103752881,-0.599999952));
#827=DIRECTION('',(0.,0.,1.));
#828=VECTOR('',#827,1.);
#829=LINE('',#826,#828);
#830=EDGE_CURVE('',#819,#156,#829,.T.);
#831=ORIENTED_EDGE('',*,*,#830,.T.);
#832=EDGE_LOOP('',(#809,#817,#825,#831));
#833=FACE_BOUND('',#832,.T.);
#834=ADVANCED_FACE('',(#833),#808,.T.);
#835=CARTESIAN_POINT('',(-50.177492559,4.103752881,-0.599999952));
#836=DIRECTION('',(0.,-1.,0.));
#837=DIRECTION('',(0.,0.,-1.));
#838=AXIS2_PLACEMENT_3D('',#835,#836,#837);
#839=PLANE('',#838);
#840=ORIENTED_EDGE('',*,*,#110,.F.);
#841=CARTESIAN_POINT('',(-48.177492559,4.103752881,-0.599999952));
#842=VERTEX_POINT('',#841);
#843=CARTESIAN_POINT('',(-48.177492559,4.103752881,0.400000048));
#844=DIRECTION('',(-0.,-0.,-1.));
#845=VECTOR('',#844,1.);
#846=LINE('',#843,#845);
#847=EDGE_CURVE('',#103,#842,#846,.T.);
#848=ORIENTED_EDGE('',*,*,#847,.T.);
#849=CARTESIAN_POINT('',(-29.143871282,4.103752881,-0.599999952));
#850=VERTEX_POINT('',#849);
#851=CARTESIAN_POINT('',(-48.177492559,4.103752881,-0.599999952));
#852=DIRECTION('',(1.,0.,-0.));
#853=VECTOR('',#852,19.033621277);
#854=LINE('',#851,#853);
#855=EDGE_CURVE('',#842,#850,#854,.T.);
#856=ORIENTED_EDGE('',*,*,#855,.T.);
#857=CARTESIAN_POINT('',(-29.143871282,4.103752881,-0.599999952));
#858=DIRECTION('',(0.,0.,1.));
#859=VECTOR('',#858,1.);
#860=LINE('',#857,#859);
#861=EDGE_CURVE('',#850,#105,#860,.T.);
#862=ORIENTED_EDGE('',*,*,#861,.T.);
#863=EDGE_LOOP('',(#840,#848,#856,#862));
#864=FACE_BOUND('',#863,.T.);
#865=ADVANCED_FACE('',(#864),#839,.T.);
#866=CARTESIAN_POINT('',(-27.143871282,4.103752881,-0.599999952));
#867=DIRECTION('',(1.,0.,0.));
#868=DIRECTION('',(0.,0.,-1.));
#869=AXIS2_PLACEMENT_3D('',#866,#867,#868);
#870=PLANE('',#869);
#871=CARTESIAN_POINT('',(-27.143871282,6.103752881,-0.599999952));
#872=VERTEX_POINT('',#871);
#873=CARTESIAN_POINT('',(-27.143871282,20.156782996,-0.599999952));
#874=VERTEX_POINT('',#873);
#875=CARTESIAN_POINT('',(-27.143871282,6.103752881,-0.599999952));
#876=DIRECTION('',(0.,1.,0.));
#877=VECTOR('',#876,14.053030116);
#878=LINE('',#875,#877);
#879=EDGE_CURVE('',#872,#874,#878,.T.);
#880=ORIENTED_EDGE('',*,*,#879,.T.);
#881=CARTESIAN_POINT('',(-27.143871282,20.156782996,-0.599999952));
#882=DIRECTION('',(0.,0.,1.));
#883=VECTOR('',#882,1.);
#884=LINE('',#881,#883);
#885=EDGE_CURVE('',#874,#122,#884,.T.);
#886=ORIENTED_EDGE('',*,*,#885,.T.);
#887=ORIENTED_EDGE('',*,*,#127,.F.);
#888=CARTESIAN_POINT('',(-27.143871282,6.103752881,0.400000048));
#889=DIRECTION('',(-0.,-0.,-1.));
#890=VECTOR('',#889,1.);
#891=LINE('',#888,#890);
#892=EDGE_CURVE('',#113,#872,#891,.T.);
#893=ORIENTED_EDGE('',*,*,#892,.T.);
#894=EDGE_LOOP('',(#880,#886,#887,#893));
#895=FACE_BOUND('',#894,.T.);
#896=ADVANCED_FACE('',(#895),#870,.T.);
#897=CARTESIAN_POINT('',(-38.66068192,12.630267939,-0.599999952));
#898=DIRECTION('',(0.,0.,1.));
#899=DIRECTION('',(1.,0.,-0.));
#900=AXIS2_PLACEMENT_3D('',#897,#898,#899);
#901=PLANE('',#900);
#902=ORIENTED_EDGE('',*,*,#426,.T.);
#903=CARTESIAN_POINT('',(-45.6,10.4,-0.599999952));
#904=DIRECTION('',(0.,0.,1.));
#905=DIRECTION('',(1.,0.,-0.));
#906=AXIS2_PLACEMENT_3D('',#903,#904,#905);
#907=CIRCLE('',#906,1.);
#908=EDGE_CURVE('',#421,#397,#907,.T.);
#909=ORIENTED_EDGE('',*,*,#908,.T.);
#910=ORIENTED_EDGE('',*,*,#402,.T.);
#911=CARTESIAN_POINT('',(-45.6,18.4,-0.599999952));
#912=DIRECTION('',(0.,0.,1.));
#913=DIRECTION('',(1.,0.,-0.));
#914=AXIS2_PLACEMENT_3D('',#911,#912,#913);
#915=CIRCLE('',#914,1.);
#916=EDGE_CURVE('',#389,#357,#915,.T.);
#917=ORIENTED_EDGE('',*,*,#916,.T.);
#918=ORIENTED_EDGE('',*,*,#362,.T.);
#919=CARTESIAN_POINT('',(-48.4,18.4,-0.599999952));
#920=DIRECTION('',(0.,0.,1.));
#921=DIRECTION('',(1.,0.,-0.));
#922=AXIS2_PLACEMENT_3D('',#919,#920,#921);
#923=CIRCLE('',#922,1.);
#924=EDGE_CURVE('',#349,#459,#923,.T.);
#925=ORIENTED_EDGE('',*,*,#924,.T.);
#926=ORIENTED_EDGE('',*,*,#466,.T.);
#927=CARTESIAN_POINT('',(-48.4,10.4,-0.599999952));
#928=DIRECTION('',(0.,0.,1.));
#929=DIRECTION('',(1.,0.,-0.));
#930=AXIS2_PLACEMENT_3D('',#927,#928,#929);
#931=CIRCLE('',#930,1.);
#932=EDGE_CURVE('',#461,#419,#931,.T.);
#933=ORIENTED_EDGE('',*,*,#932,.T.);
#934=EDGE_LOOP('',(#902,#909,#910,#917,#918,#925,#926,#933));
#935=FACE_BOUND('',#934,.T.);
#936=ORIENTED_EDGE('',*,*,#322,.T.);
#937=CARTESIAN_POINT('',(-41.1,11.4,-0.599999952));
#938=DIRECTION('',(0.,0.,1.));
#939=DIRECTION('',(1.,0.,-0.));
#940=AXIS2_PLACEMENT_3D('',#937,#938,#939);
#941=CIRCLE('',#940,1.);
#942=EDGE_CURVE('',#309,#259,#941,.T.);
#943=ORIENTED_EDGE('',*,*,#942,.T.);
#944=ORIENTED_EDGE('',*,*,#266,.T.);
#945=CARTESIAN_POINT('',(-32.8,11.4,-0.599999952));
#946=DIRECTION('',(0.,0.,1.));
#947=DIRECTION('',(1.,0.,-0.));
#948=AXIS2_PLACEMENT_3D('',#945,#946,#947);
#949=CIRCLE('',#948,1.);
#950=EDGE_CURVE('',#261,#237,#949,.T.);
#951=ORIENTED_EDGE('',*,*,#950,.T.);
#952=ORIENTED_EDGE('',*,*,#242,.T.);
#953=CARTESIAN_POINT('',(-32.8,17.,-0.599999952));
#954=DIRECTION('',(0.,0.,1.));
#955=DIRECTION('',(1.,0.,-0.));
#956=AXIS2_PLACEMENT_3D('',#953,#954,#955);
#957=CIRCLE('',#956,1.);
#958=EDGE_CURVE('',#229,#179,#957,.T.);
#959=ORIENTED_EDGE('',*,*,#958,.T.);
#960=ORIENTED_EDGE('',*,*,#186,.T.);
#961=CARTESIAN_POINT('',(-41.1,17.,-0.599999952));
#962=DIRECTION('',(0.,0.,1.));
#963=DIRECTION('',(1.,0.,-0.));
#964=AXIS2_PLACEMENT_3D('',#961,#962,#963);
#965=CIRCLE('',#964,1.);
#966=EDGE_CURVE('',#181,#317,#965,.T.);
#967=ORIENTED_EDGE('',*,*,#966,.T.);
#968=EDGE_LOOP('',(#936,#943,#944,#951,#952,#959,#960,#967));
#969=FACE_BOUND('',#968,.T.);
#970=ORIENTED_EDGE('',*,*,#793,.F.);
#971=CARTESIAN_POINT('',(-29.143871282,20.156782996,-0.599999952));
#972=DIRECTION('',(-0.,-0.,-1.));
#973=DIRECTION('',(1.,0.,-0.));
#974=AXIS2_PLACEMENT_3D('',#971,#972,#973);
#975=CIRCLE('',#974,2.);
#976=EDGE_CURVE('',#780,#874,#975,.T.);
#977=ORIENTED_EDGE('',*,*,#976,.T.);
#978=ORIENTED_EDGE('',*,*,#879,.F.);
#979=CARTESIAN_POINT('',(-29.143871282,6.103752881,-0.599999952));
#980=DIRECTION('',(-0.,-0.,-1.));
#981=DIRECTION('',(1.,0.,-0.));
#982=AXIS2_PLACEMENT_3D('',#979,#980,#981);
#983=CIRCLE('',#982,2.);
#984=EDGE_CURVE('',#872,#850,#983,.T.);
#985=ORIENTED_EDGE('',*,*,#984,.T.);
#986=ORIENTED_EDGE('',*,*,#855,.F.);
#987=CARTESIAN_POINT('',(-48.177492559,6.103752881,-0.599999952));
#988=DIRECTION('',(-0.,-0.,-1.));
#989=DIRECTION('',(1.,0.,-0.));
#990=AXIS2_PLACEMENT_3D('',#987,#988,#989);
#991=CIRCLE('',#990,2.);
#992=EDGE_CURVE('',#842,#819,#991,.T.);
#993=ORIENTED_EDGE('',*,*,#992,.T.);
#994=ORIENTED_EDGE('',*,*,#824,.F.);
#995=CARTESIAN_POINT('',(-48.177492559,20.156782996,-0.599999952));
#996=DIRECTION('',(-0.,-0.,-1.));
#997=DIRECTION('',(1.,0.,-0.));
#998=AXIS2_PLACEMENT_3D('',#995,#996,#997);
#999=CIRCLE('',#998,2.);
#1000=EDGE_CURVE('',#811,#788,#999,.T.);
#1001=ORIENTED_EDGE('',*,*,#1000,.T.);
#1002=EDGE_LOOP('',(#970,#977,#978,#985,#986,#993,#994,#1001));
#1003=FACE_BOUND('',#1002,.T.);
#1004=ADVANCED_FACE('',(#935,#969,#1003),#901,.F.);
#1005=CARTESIAN_POINT('',(-48.4,18.4,0.400000048));
#1006=DIRECTION('',(0.,0.,-1.));
#1007=DIRECTION('',(-1.,0.,0.));
#1008=AXIS2_PLACEMENT_3D('',#1005,#1006,#1007);
#1009=CYLINDRICAL_SURFACE('',#1008,1.);
#1010=ORIENTED_EDGE('',*,*,#924,.F.);
#1011=ORIENTED_EDGE('',*,*,#354,.F.);
#1012=ORIENTED_EDGE('',*,*,#512,.F.);
#1013=ORIENTED_EDGE('',*,*,#474,.F.);
#1014=EDGE_LOOP('',(#1010,#1011,#1012,#1013));
#1015=FACE_BOUND('',#1014,.T.);
#1016=ADVANCED_FACE('',(#1015),#1009,.F.);
#1017=CARTESIAN_POINT('',(-48.4,10.4,0.400000048));
#1018=DIRECTION('',(0.,0.,-1.));
#1019=DIRECTION('',(-1.,0.,0.));
#1020=AXIS2_PLACEMENT_3D('',#1017,#1018,#1019);
#1021=CYLINDRICAL_SURFACE('',#1020,1.);
#1022=ORIENTED_EDGE('',*,*,#932,.F.);
#1023=ORIENTED_EDGE('',*,*,#488,.F.);
#1024=ORIENTED_EDGE('',*,*,#504,.F.);
#1025=ORIENTED_EDGE('',*,*,#434,.F.);
#1026=EDGE_LOOP('',(#1022,#1023,#1024,#1025));
#1027=FACE_BOUND('',#1026,.T.);
#1028=ADVANCED_FACE('',(#1027),#1021,.F.);
#1029=CARTESIAN_POINT('',(-45.6,18.4,0.400000048));
#1030=DIRECTION('',(0.,0.,-1.));
#1031=DIRECTION('',(-1.,0.,0.));
#1032=AXIS2_PLACEMENT_3D('',#1029,#1030,#1031);
#1033=CYLINDRICAL_SURFACE('',#1032,1.);
#1034=ORIENTED_EDGE('',*,*,#916,.F.);
#1035=ORIENTED_EDGE('',*,*,#394,.F.);
#1036=ORIENTED_EDGE('',*,*,#520,.F.);
#1037=ORIENTED_EDGE('',*,*,#368,.F.);
#1038=EDGE_LOOP('',(#1034,#1035,#1036,#1037));
#1039=FACE_BOUND('',#1038,.T.);
#1040=ADVANCED_FACE('',(#1039),#1033,.F.);
#1041=CARTESIAN_POINT('',(-45.6,10.4,0.400000048));
#1042=DIRECTION('',(0.,0.,-1.));
#1043=DIRECTION('',(-1.,0.,0.));
#1044=AXIS2_PLACEMENT_3D('',#1041,#1042,#1043);
#1045=CYLINDRICAL_SURFACE('',#1044,1.);
#1046=ORIENTED_EDGE('',*,*,#908,.F.);
#1047=ORIENTED_EDGE('',*,*,#448,.F.);
#1048=ORIENTED_EDGE('',*,*,#528,.F.);
#1049=ORIENTED_EDGE('',*,*,#408,.F.);
#1050=EDGE_LOOP('',(#1046,#1047,#1048,#1049));
#1051=FACE_BOUND('',#1050,.T.);
#1052=ADVANCED_FACE('',(#1051),#1045,.F.);
#1053=CARTESIAN_POINT('',(-32.8,17.,0.400000048));
#1054=DIRECTION('',(0.,0.,-1.));
#1055=DIRECTION('',(-1.,0.,0.));
#1056=AXIS2_PLACEMENT_3D('',#1053,#1054,#1055);
#1057=CYLINDRICAL_SURFACE('',#1056,1.);
#1058=ORIENTED_EDGE('',*,*,#958,.F.);
#1059=ORIENTED_EDGE('',*,*,#234,.F.);
#1060=ORIENTED_EDGE('',*,*,#554,.F.);
#1061=ORIENTED_EDGE('',*,*,#194,.F.);
#1062=EDGE_LOOP('',(#1058,#1059,#1060,#1061));
#1063=FACE_BOUND('',#1062,.T.);
#1064=ADVANCED_FACE('',(#1063),#1057,.F.);
#1065=CARTESIAN_POINT('',(-41.1,11.4,0.400000048));
#1066=DIRECTION('',(0.,0.,-1.));
#1067=DIRECTION('',(-1.,0.,0.));
#1068=AXIS2_PLACEMENT_3D('',#1065,#1066,#1067);
#1069=CYLINDRICAL_SURFACE('',#1068,1.);
#1070=ORIENTED_EDGE('',*,*,#942,.F.);
#1071=ORIENTED_EDGE('',*,*,#314,.F.);
#1072=ORIENTED_EDGE('',*,*,#538,.F.);
#1073=ORIENTED_EDGE('',*,*,#274,.F.);
#1074=EDGE_LOOP('',(#1070,#1071,#1072,#1073));
#1075=FACE_BOUND('',#1074,.T.);
#1076=ADVANCED_FACE('',(#1075),#1069,.F.);
#1077=CARTESIAN_POINT('',(-41.1,17.,0.400000048));
#1078=DIRECTION('',(0.,0.,-1.));
#1079=DIRECTION('',(-1.,0.,0.));
#1080=AXIS2_PLACEMENT_3D('',#1077,#1078,#1079);
#1081=CYLINDRICAL_SURFACE('',#1080,1.);
#1082=ORIENTED_EDGE('',*,*,#966,.F.);
#1083=ORIENTED_EDGE('',*,*,#208,.F.);
#1084=ORIENTED_EDGE('',*,*,#546,.F.);
#1085=ORIENTED_EDGE('',*,*,#328,.F.);
#1086=EDGE_LOOP('',(#1082,#1083,#1084,#1085));
#1087=FACE_BOUND('',#1086,.T.);
#1088=ADVANCED_FACE('',(#1087),#1081,.F.);
#1089=CARTESIAN_POINT('',(-32.8,11.4,0.400000048));
#1090=DIRECTION('',(0.,0.,-1.));
#1091=DIRECTION('',(-1.,0.,0.));
#1092=AXIS2_PLACEMENT_3D('',#1089,#1090,#1091);
#1093=CYLINDRICAL_SURFACE('',#1092,1.);
#1094=ORIENTED_EDGE('',*,*,#950,.F.);
#1095=ORIENTED_EDGE('',*,*,#288,.F.);
#1096=ORIENTED_EDGE('',*,*,#562,.F.);
#1097=ORIENTED_EDGE('',*,*,#248,.F.);
#1098=EDGE_LOOP('',(#1094,#1095,#1096,#1097));
#1099=FACE_BOUND('',#1098,.T.);
#1100=ADVANCED_FACE('',(#1099),#1093,.F.);
#1101=CARTESIAN_POINT('',(-29.143871282,20.156782996,-0.599999952));
#1102=DIRECTION('',(0.,0.,1.));
#1103=DIRECTION('',(1.,0.,-0.));
#1104=AXIS2_PLACEMENT_3D('',#1101,#1102,#1103);
#1105=CYLINDRICAL_SURFACE('',#1104,2.);
#1106=ORIENTED_EDGE('',*,*,#976,.F.);
#1107=ORIENTED_EDGE('',*,*,#785,.F.);
#1108=ORIENTED_EDGE('',*,*,#136,.F.);
#1109=ORIENTED_EDGE('',*,*,#885,.F.);
#1110=EDGE_LOOP('',(#1106,#1107,#1108,#1109));
#1111=FACE_BOUND('',#1110,.T.);
#1112=ADVANCED_FACE('',(#1111),#1105,.T.);
#1113=CARTESIAN_POINT('',(-48.177492559,20.156782996,-0.599999952));
#1114=DIRECTION('',(0.,0.,1.));
#1115=DIRECTION('',(1.,0.,-0.));
#1116=AXIS2_PLACEMENT_3D('',#1113,#1114,#1115);
#1117=CYLINDRICAL_SURFACE('',#1116,2.);
#1118=ORIENTED_EDGE('',*,*,#1000,.F.);
#1119=ORIENTED_EDGE('',*,*,#816,.F.);
#1120=ORIENTED_EDGE('',*,*,#153,.F.);
#1121=ORIENTED_EDGE('',*,*,#799,.F.);
#1122=EDGE_LOOP('',(#1118,#1119,#1120,#1121));
#1123=FACE_BOUND('',#1122,.T.);
#1124=ADVANCED_FACE('',(#1123),#1117,.T.);
#1125=CARTESIAN_POINT('',(-48.177492559,6.103752881,-0.599999952));
#1126=DIRECTION('',(0.,0.,1.));
#1127=DIRECTION('',(1.,0.,-0.));
#1128=AXIS2_PLACEMENT_3D('',#1125,#1126,#1127);
#1129=CYLINDRICAL_SURFACE('',#1128,2.);
#1130=ORIENTED_EDGE('',*,*,#992,.F.);
#1131=ORIENTED_EDGE('',*,*,#847,.F.);
#1132=ORIENTED_EDGE('',*,*,#168,.F.);
#1133=ORIENTED_EDGE('',*,*,#830,.F.);
#1134=EDGE_LOOP('',(#1130,#1131,#1132,#1133));
#1135=FACE_BOUND('',#1134,.T.);
#1136=ADVANCED_FACE('',(#1135),#1129,.T.);
#1137=CARTESIAN_POINT('',(-29.143871282,6.103752881,-0.599999952));
#1138=DIRECTION('',(0.,0.,1.));
#1139=DIRECTION('',(1.,0.,-0.));
#1140=AXIS2_PLACEMENT_3D('',#1137,#1138,#1139);
#1141=CYLINDRICAL_SURFACE('',#1140,2.);
#1142=ORIENTED_EDGE('',*,*,#984,.F.);
#1143=ORIENTED_EDGE('',*,*,#892,.F.);
#1144=ORIENTED_EDGE('',*,*,#119,.F.);
#1145=ORIENTED_EDGE('',*,*,#861,.F.);
#1146=EDGE_LOOP('',(#1142,#1143,#1144,#1145));
#1147=FACE_BOUND('',#1146,.T.);
#1148=ADVANCED_FACE('',(#1147),#1141,.T.);
#1149=CLOSED_SHELL('',(#172,#212,#252,#292,#332,#372,#412,#452,#492,#636,#658,#680,#702,#724,#736,#748,#760,#772,#803,#834,#865,#896,#1004,#1016,#1028,#1040,
#1052,#1064,#1076,#1088,#1100,#1112,#1124,#1136,#1148));
#1150=MANIFOLD_SOLID_BREP('\X2\30593089304430693059304330633061\X0\',#1149);
#26=STYLED_ITEM('',(),#1150);
#16=SHAPE_REPRESENTATION('root',(#15),#10);
#17=ADVANCED_BREP_SHAPE_REPRESENTATION('root',(#1150),#10);
#1158=SHAPE_REPRESENTATION_RELATIONSHIP('','',#16,#17);
#1159=APPLICATION_CONTEXT('configuration controlled 3D design of mechanical parts and assemblies');
#1160=APPLICATION_PROTOCOL_DEFINITION('international standard','configuration_control_3d_design_ed2_mim',2004,#1159);
#1161=PRODUCT_CONTEXT('',#1159,'mechanical');
#1162=PRODUCT_DEFINITION_CONTEXT('part definition',#1159,'design');
#24=PRODUCT('root','root','',(#1161));
#1163=PRODUCT_RELATED_PRODUCT_CATEGORY('part','',(#24));
#1164=PRODUCT_DEFINITION_FORMATION_WITH_SPECIFIED_SOURCE('','',#24,.NOT_KNOWN.);
#25=PRODUCT_DEFINITION('design','',#1164,#1162);
#23=PRODUCT_DEFINITION_SHAPE('','',#25);
#1165=SHAPE_DEFINITION_REPRESENTATION(#23,#16);
#11=DRAUGHTING_MODEL('',(),#10);
#1=MECHANICAL_DESIGN_GEOMETRIC_PRESENTATION_REPRESENTATION('',(#26),#10);
ENDSEC;
END-ISO-10303-21;
