ISO-10303-21;
HEADER;

/* File generated by HOOPS Exchange Version 24.2.0 */

FILE_DESCRIPTION(('HOOPS Exchange Step'),'2;1');

FILE_NAME('/Users/zoesu_takanori/Desktop/Corchibi2-case/R-battery-cove-plate.stp',
'2026-06-29T23:09:22+09:00',
('zoesu_takanori'),
('Unknown organisation'),
'HOOPS Exchange 2024.2',
'HOOPS Exchange',
'Unknown authorisation');

FILE_SCHEMA( ('AP203_CONFIGURATION_CONTROLLED_3D_DESIGN_OF_MECHANICAL_PARTS_AND_ASSEMBLIES_MIM_LF') );

ENDSEC;

DATA;
#3=(NAMED_UNIT(*)PLANE_ANGLE_UNIT()SI_UNIT($,.RADIAN.));
#4=PLANE_ANGLE_MEASURE_WITH_UNIT(PLANE_ANGLE_MEASURE(0.0174532925),#3);
#5=(CONVERSION_BASED_UNIT('DEGREE',#4)NAMED_UNIT(#6)PLANE_ANGLE_UNIT());
#6=DIMENSIONAL_EXPONENTS(0.,0.,0.,0.,0.,0.,0.);
#7=(NAMED_UNIT(*)SI_UNIT($,.STERADIAN.)SOLID_ANGLE_UNIT());
#8=(LENGTH_UNIT()NAMED_UNIT(*)SI_UNIT(.MILLI.,.METRE.));
#9=UNCERTAINTY_MEASURE_WITH_UNIT(LENGTH_MEASURE(1.000000E-05),#8,'DISTANCE_ACCURACY_VALUE','Maximum Tolerance applied to model');
#10=(GEOMETRIC_REPRESENTATION_CONTEXT(3)GLOBAL_UNCERTAINTY_ASSIGNED_CONTEXT((#9))GLOBAL_UNIT_ASSIGNED_CONTEXT((#8,#5,#7))REPRESENTATION_CONTEXT('','root'));
#12=CARTESIAN_POINT('',(0.,0.,0.));
#13=DIRECTION('',(0.,0.,1.));
#14=DIRECTION('',(1.,0.,0.));
#15=AXIS2_PLACEMENT_3D('TS3D_PRODUCT_CSYS',#12,#13,#14);
#27=CARTESIAN_POINT('',(-51.8,-20.522095871,-5.792644806));
#28=DIRECTION('',(0.039810629,0.,-0.999207243));
#29=DIRECTION('',(-0.999207243,0.,-0.039810629));
#30=AXIS2_PLACEMENT_3D('',#27,#28,#29);
#31=PLANE('',#30);
#32=CARTESIAN_POINT('',(-51.8,36.477904129,-5.792644806));
#33=VERTEX_POINT('',#32);
#34=CARTESIAN_POINT('',(-65.33497976,36.477904129,-6.331908367));
#35=VERTEX_POINT('',#34);
#36=CARTESIAN_POINT('',(-51.8,36.477904129,-5.792644806));
#37=DIRECTION('',(-0.999207243,0.,-0.039810629));
#38=VECTOR('',#37,13.545718227);
#39=LINE('',#36,#38);
#40=EDGE_CURVE('',#33,#35,#39,.T.);
#41=ORIENTED_EDGE('',*,*,#40,.T.);
#42=CARTESIAN_POINT('',(-65.33497976,-20.522095871,-6.331908367));
#43=VERTEX_POINT('',#42);
#44=CARTESIAN_POINT('',(-65.33497976,-20.522095871,-6.331908367));
#45=DIRECTION('',(0.,1.,0.));
#46=VECTOR('',#45,57.);
#47=LINE('',#44,#46);
#48=EDGE_CURVE('',#43,#35,#47,.T.);
#49=ORIENTED_EDGE('',*,*,#48,.F.);
#50=CARTESIAN_POINT('',(-51.8,-20.522095871,-5.792644806));
#51=VERTEX_POINT('',#50);
#52=CARTESIAN_POINT('',(-51.8,-20.522095871,-5.792644806));
#53=DIRECTION('',(-0.999207243,0.,-0.039810629));
#54=VECTOR('',#53,13.545718227);
#55=LINE('',#52,#54);
#56=EDGE_CURVE('',#51,#43,#55,.T.);
#57=ORIENTED_EDGE('',*,*,#56,.F.);
#58=CARTESIAN_POINT('',(-51.8,-20.522095871,-5.792644806));
#59=DIRECTION('',(0.,1.,0.));
#60=VECTOR('',#59,57.);
#61=LINE('',#58,#60);
#62=EDGE_CURVE('',#51,#33,#61,.T.);
#63=ORIENTED_EDGE('',*,*,#62,.T.);
#64=EDGE_LOOP('',(#41,#49,#57,#63));
#65=FACE_BOUND('',#64,.T.);
#66=ADVANCED_FACE('',(#65),#31,.F.);
#67=CARTESIAN_POINT('',(-51.8,-20.522095871,-6.493575439));
#68=DIRECTION('',(-1.,0.,0.));
#69=DIRECTION('',(0.,0.,1.));
#70=AXIS2_PLACEMENT_3D('',#67,#68,#69);
#71=PLANE('',#70);
#72=CARTESIAN_POINT('',(-51.8,36.477904129,-6.493575439));
#73=VERTEX_POINT('',#72);
#74=CARTESIAN_POINT('',(-51.8,36.477904129,-6.493575439));
#75=DIRECTION('',(0.,0.,1.));
#76=VECTOR('',#75,0.700930632);
#77=LINE('',#74,#76);
#78=EDGE_CURVE('',#73,#33,#77,.T.);
#79=ORIENTED_EDGE('',*,*,#78,.T.);
#80=ORIENTED_EDGE('',*,*,#62,.F.);
#81=CARTESIAN_POINT('',(-51.8,-20.522095871,-6.493575439));
#82=VERTEX_POINT('',#81);
#83=CARTESIAN_POINT('',(-51.8,-20.522095871,-6.493575439));
#84=DIRECTION('',(0.,0.,1.));
#85=VECTOR('',#84,0.700930632);
#86=LINE('',#83,#85);
#87=EDGE_CURVE('',#82,#51,#86,.T.);
#88=ORIENTED_EDGE('',*,*,#87,.F.);
#89=CARTESIAN_POINT('',(-51.8,-20.522095871,-6.493575439));
#90=DIRECTION('',(0.,1.,0.));
#91=VECTOR('',#90,57.);
#92=LINE('',#89,#91);
#93=EDGE_CURVE('',#82,#73,#92,.T.);
#94=ORIENTED_EDGE('',*,*,#93,.T.);
#95=EDGE_LOOP('',(#79,#80,#88,#94));
#96=FACE_BOUND('',#95,.T.);
#97=ADVANCED_FACE('',(#96),#71,.F.);
#98=CARTESIAN_POINT('',(-51.8,-20.522095871,-6.493575439));
#99=DIRECTION('',(0.039471868,0.,-0.999220682));
#100=DIRECTION('',(-0.999220682,0.,-0.039471868));
#101=AXIS2_PLACEMENT_3D('',#98,#99,#100);
#102=PLANE('',#101);
#103=CARTESIAN_POINT('',(-65.300285702,36.477904129,-7.026872539));
#104=VERTEX_POINT('',#103);
#105=CARTESIAN_POINT('',(-51.8,36.477904129,-6.493575439));
#106=DIRECTION('',(-0.999220682,0.,-0.039471868));
#107=VECTOR('',#106,13.510814921);
#108=LINE('',#105,#107);
#109=EDGE_CURVE('',#73,#104,#108,.T.);
#110=ORIENTED_EDGE('',*,*,#109,.F.);
#111=ORIENTED_EDGE('',*,*,#93,.F.);
#112=CARTESIAN_POINT('',(-65.300285702,-20.522095871,-7.026872539));
#113=VERTEX_POINT('',#112);
#114=CARTESIAN_POINT('',(-51.8,-20.522095871,-6.493575439));
#115=DIRECTION('',(-0.999220682,0.,-0.039471868));
#116=VECTOR('',#115,13.510814921);
#117=LINE('',#114,#116);
#118=EDGE_CURVE('',#82,#113,#117,.T.);
#119=ORIENTED_EDGE('',*,*,#118,.T.);
#120=CARTESIAN_POINT('',(-65.300285702,-20.522095871,-7.026872539));
#121=DIRECTION('',(0.,1.,0.));
#122=VECTOR('',#121,57.);
#123=LINE('',#120,#122);
#124=EDGE_CURVE('',#113,#104,#123,.T.);
#125=ORIENTED_EDGE('',*,*,#124,.T.);
#126=EDGE_LOOP('',(#110,#111,#119,#125));
#127=FACE_BOUND('',#126,.T.);
#128=ADVANCED_FACE('',(#127),#102,.T.);
#129=CARTESIAN_POINT('',(-65.300285702,-20.522095871,-7.026872539));
#130=DIRECTION('',(-0.998756217,0.,-0.049859989));
#131=DIRECTION('',(-0.049859989,0.,0.998756217));
#132=AXIS2_PLACEMENT_3D('',#129,#130,#131);
#133=PLANE('',#132);
#134=CARTESIAN_POINT('',(-65.300285702,36.477904129,-7.026872539));
#135=DIRECTION('',(-0.049859989,0.,0.998756217));
#136=VECTOR('',#135,0.695829633);
#137=LINE('',#134,#136);
#138=EDGE_CURVE('',#104,#35,#137,.T.);
#139=ORIENTED_EDGE('',*,*,#138,.F.);
#140=ORIENTED_EDGE('',*,*,#124,.F.);
#141=CARTESIAN_POINT('',(-65.300285702,-20.522095871,-7.026872539));
#142=DIRECTION('',(-0.049859989,0.,0.998756217));
#143=VECTOR('',#142,0.695829633);
#144=LINE('',#141,#143);
#145=EDGE_CURVE('',#113,#43,#144,.T.);
#146=ORIENTED_EDGE('',*,*,#145,.T.);
#147=ORIENTED_EDGE('',*,*,#48,.T.);
#148=EDGE_LOOP('',(#139,#140,#146,#147));
#149=FACE_BOUND('',#148,.T.);
#150=ADVANCED_FACE('',(#149),#133,.T.);
#151=CARTESIAN_POINT('',(-51.8,-20.522095871,-6.143110122));
#152=DIRECTION('',(0.,1.,0.));
#153=DIRECTION('',(0.,0.,1.));
#154=AXIS2_PLACEMENT_3D('',#151,#152,#153);
#155=PLANE('',#154);
#156=ORIENTED_EDGE('',*,*,#56,.T.);
#157=ORIENTED_EDGE('',*,*,#145,.F.);
#158=ORIENTED_EDGE('',*,*,#118,.F.);
#159=ORIENTED_EDGE('',*,*,#87,.T.);
#160=EDGE_LOOP('',(#156,#157,#158,#159));
#161=FACE_BOUND('',#160,.T.);
#162=ADVANCED_FACE('',(#161),#155,.F.);
#163=CARTESIAN_POINT('',(-51.8,36.477904129,-6.143110122));
#164=DIRECTION('',(0.,1.,0.));
#165=DIRECTION('',(0.,0.,1.));
#166=AXIS2_PLACEMENT_3D('',#163,#164,#165);
#167=PLANE('',#166);
#168=ORIENTED_EDGE('',*,*,#40,.F.);
#169=ORIENTED_EDGE('',*,*,#78,.F.);
#170=ORIENTED_EDGE('',*,*,#109,.T.);
#171=ORIENTED_EDGE('',*,*,#138,.T.);
#172=EDGE_LOOP('',(#168,#169,#170,#171));
#173=FACE_BOUND('',#172,.T.);
#174=ADVANCED_FACE('',(#173),#167,.T.);
#175=CLOSED_SHELL('',(#66,#97,#128,#150,#162,#174));
#176=MANIFOLD_SOLID_BREP('\X2\96FB6C6084CB\X0\-\X2\30D730EC30FC30C8\X0\',#175);
#26=STYLED_ITEM('',(),#176);
#16=SHAPE_REPRESENTATION('root',(#15),#10);
#17=ADVANCED_BREP_SHAPE_REPRESENTATION('root',(#176),#10);
#184=SHAPE_REPRESENTATION_RELATIONSHIP('','',#16,#17);
#185=APPLICATION_CONTEXT('configuration controlled 3D design of mechanical parts and assemblies');
#186=APPLICATION_PROTOCOL_DEFINITION('international standard','configuration_control_3d_design_ed2_mim',2004,#185);
#187=PRODUCT_CONTEXT('',#185,'mechanical');
#188=PRODUCT_DEFINITION_CONTEXT('part definition',#185,'design');
#24=PRODUCT('root','root','',(#187));
#189=PRODUCT_RELATED_PRODUCT_CATEGORY('part','',(#24));
#190=PRODUCT_DEFINITION_FORMATION_WITH_SPECIFIED_SOURCE('','',#24,.NOT_KNOWN.);
#25=PRODUCT_DEFINITION('design','',#190,#188);
#23=PRODUCT_DEFINITION_SHAPE('','',#25);
#191=SHAPE_DEFINITION_REPRESENTATION(#23,#16);
#11=DRAUGHTING_MODEL('',(),#10);
#1=MECHANICAL_DESIGN_GEOMETRIC_PRESENTATION_REPRESENTATION('',(#26),#10);
ENDSEC;
END-ISO-10303-21;
